<?xml version="1.0" encoding="UTF-8" standalone="no"?>
<svg
   xmlns:dc="http://purl.org/dc/elements/1.1/"
   xmlns:cc="http://creativecommons.org/ns#"
   xmlns:rdf="http://www.w3.org/1999/02/22-rdf-syntax-ns#"
   xmlns:svg="http://www.w3.org/2000/svg"
   xmlns="http://www.w3.org/2000/svg"
   xmlns:sodipodi="http://sodipodi.sourceforge.net/DTD/sodipodi-0.dtd"
   xmlns:inkscape="http://www.inkscape.org/namespaces/inkscape"
   inkscape:version="1.0 (4035a4fb49, 2020-05-01)"
   height="500mm"
   width="500mm"
   sodipodi:docname="hero.svg"
   id="svg868"
   version="1.1"
   viewBox="0 0 500 500"
   data-name="Ebene 1">
  <metadata
     id="metadata874">
    <rdf:RDF>
      <cc:Work
         rdf:about="">
        <dc:format>image/svg+xml</dc:format>
        <dc:type
           rdf:resource="http://purl.org/dc/dcmitype/StillImage" />
        <dc:title></dc:title>
      </cc:Work>
    </rdf:RDF>
  </metadata>
  <defs
     id="defs872" />
  <sodipodi:namedview
     units="mm"
     inkscape:current-layer="svg868"
     inkscape:window-maximized="1"
     inkscape:window-y="-8"
     inkscape:window-x="1912"
     inkscape:cy="-5.5233416"
     inkscape:cx="-94.799582"
     inkscape:zoom="0.2248958"
     inkscape:document-units="mm"
     showgrid="false"
     id="namedview870"
     inkscape:window-height="1017"
     inkscape:window-width="1920"
     inkscape:pageshadow="2"
     inkscape:pageopacity="0"
     guidetolerance="10"
     gridtolerance="10"
     objecttolerance="10"
     borderopacity="1"
     bordercolor="#666666"
     pagecolor="#ffffff" />
  <path
     style="stroke-width:0.691515"
     d="M 383.09718,1.3924229 C 379.6178,1.4164883 376.1235,1.5724966 372.61275,1.8736082 A 205.43892,200.05151 0 0 0 325.46087,11.340019 C 300.98265,19.285536 277.11659,28.819683 253.36586,38.707577 224.23168,50.815013 194.58234,61.260338 163.34566,67.038829 152.25511,69.090157 141.14416,70.959001 129.83408,71.165561 120.74194,71.316391 111.64645,71.295449 102.55485,71.165561 92.472517,71.02182 82.389585,70.688863 72.307248,70.369803 69.948675,70.295987 67.593576,69.949416 65.238709,69.72867 L 64.940367,69.264811 C 68.346871,68.069155 67.960555,65.758482 67.179307,63.303985 67.049806,62.897269 66.964289,62.476849 66.845382,62.063038 66.582668,61.130349 66.507122,60.355994 67.626823,59.770406 68.843979,59.121649 68.955752,58.0971 68.174239,56.964611 A 17.823935,17.356421 0 0 1 66.852224,54.755958 C 64.342435,49.594639 65.029981,47.616664 70.16821,45.081611 72.458195,43.938475 73.675576,42.01753 74.395648,39.731257 74.572026,39.163064 74.590144,38.234345 74.276586,37.918485 73.963292,37.602976 72.977908,37.638203 72.441368,37.862503 69.816638,38.963402 67.108278,39.040828 64.328626,38.767557 A 52.25439,50.884247 0 0 0 59.078885,38.462315 C 52.719525,38.462315 48.246863,41.529601 46.957672,47.57817 45.884581,52.616696 45.680303,57.830806 45.060865,62.964087 44.881047,64.46461 44.634929,65.958242 44.339641,67.441376 44.123805,68.552928 43.335793,68.911276 42.180076,69.058209 39.148039,69.443989 36.108997,69.864491 33.131251,70.527089 25.666759,72.192642 19.826687,76.014651 16.30498,82.848623 A 11.720471,11.413253 0 0 1 14.417756,85.342522 C 11.007806,88.93305 8.6884345,93.105276 8.1484463,97.96529 7.4352597,104.38899 7.0000685,110.84713 6.5787241,117.29532 6.1865114,123.28428 5.4519287,129.11568 2.8987045,134.72594 0.29171974,140.45156 0.46414373,146.36222 2.7686927,152.35118 6.2183652,161.29929 10.921332,169.75347 13.441982,179.08025 14.511365,183.0704 16.628606,183.88798 20.762334,182.8151 A 16.300802,15.87329 0 0 0 22.534601,182.22596 C 25.713884,180.96322 27.276587,178.11662 26.671716,174.86289 26.135171,172.01234 24.434756,169.7643 22.771359,167.45318 21.457009,165.6336 19.652458,163.6525 19.497798,161.63631 19.06586,156.07537 19.210495,150.44379 19.466321,144.85482 19.653026,140.85402 20.333734,136.8678 20.906032,132.89184 21.187017,130.93883 21.72729,129.01355 22.18836,126.90969 A 4.4469652,4.3304989 0 0 1 22.839786,127.37621 C 27.019153,133.81151 31.170552,140.26586 35.292184,146.7409 A 3.071773,2.9907486 0 0 1 35.788969,148.60033 C 33.668211,161.49672 31.431221,174.3604 29.389647,187.27773 27.679111,198.06353 26.170757,208.88057 24.625739,219.69439 24.049471,223.75481 23.364927,227.73122 21.345334,231.43743 19.238878,235.30833 17.478816,239.35531 15.483853,243.27912 15.185124,243.86825 14.461433,244.5475 13.845703,244.63869 11.483686,244.98934 10.182603,246.3327 10.009669,248.49617 9.5957398,253.77321 9.0346659,259.07124 9.1392737,264.34861 9.2759258,271.47326 10.13258,278.58769 10.402441,285.7127 10.618543,291.46671 9.412909,296.98516 6.2187968,301.98501 A 24.04218,23.411738 0 0 0 4.2412479,306.1264 C 1.7531722,312.56076 5.4553696,317.98862 12.466209,318.21999 14.093853,318.27253 15.732352,318.25874 17.356023,318.15333 22.350713,317.83071 27.402432,317.8018 32.314229,316.98837 37.528197,316.12952 38.632643,311.82725 34.970577,308.04047 A 18.52975,18.043509 0 0 0 33.310531,306.55425 C 31.088873,304.76235 28.875046,302.96646 26.621078,301.21324 24.781042,299.78973 23.956726,298.10394 24.583313,295.77225 26.218109,289.69599 27.532535,283.52815 29.426598,277.53921 31.320396,271.55061 33.768704,265.72652 35.972355,259.83267 37.081195,256.87284 38.140155,253.7693 36.883804,250.76081 36.12401,248.89545 36.169791,247.27975 36.482821,245.48111 36.840078,243.43689 37.202978,241.389 37.407958,239.32701 38.113727,232.31453 40.390272,225.91795 44.765263,220.22357 A 103.43967,100.72686 0 0 0 56.864574,199.62726 C 57.732423,197.632 58.642841,195.652 59.531874,193.66775 L 60.032761,193.79971 C 60.057921,194.21672 60.101186,194.63486 60.101186,195.04866 60.072321,203.5936 59.909814,212.13552 61.540898,220.60344 62.423045,225.18274 61.494192,229.36845 58.231753,233.05693 A 28.323714,27.58111 0 0 0 52.273104,243.75096 C 51.880894,245.13613 51.159814,245.94609 49.752246,246.39148 47.814746,247.00865 46.680812,248.36289 46.374672,250.39291 45.712332,254.81782 46.910956,258.72419 49.672867,262.2306 53.788587,267.45157 56.561934,273.26443 57.641911,279.78252 58.307959,283.90967 59.503421,288.05141 58.001838,292.24134 55.877638,298.17423 55.657329,304.3163 55.823111,310.50504 55.887996,312.72105 56.989123,314.35511 59.12815,315.1756 A 26.826088,26.122468 0 0 0 62.898496,316.26726 C 69.811876,317.81356 76.758318,316.71912 83.689443,316.43521 A 48.25052,46.985306 0 0 0 91.3273,315.50882 C 93.865428,315.0038 95.53576,313.27591 96.047417,310.82493 96.558272,308.374 94.928195,306.98913 92.976401,305.89179 92.43641,305.58659 91.864065,305.32623 91.334138,305.00007 87.373613,302.54914 83.329192,300.21744 79.490745,297.59436 75.825234,295.0877 73.632234,291.52996 73.459563,287.10826 A 88.863515,86.533316 0 0 1 73.755171,277.43391 C 74.255697,270.86648 74.9286,264.3101 75.468589,257.74266 75.680983,255.17957 75.347155,252.62923 73.309026,250.79546 72.22852,249.83119 72.119778,248.8925 72.45505,247.72842 74.046677,242.22001 75.487339,236.6583 77.287389,231.22017 80.90973,220.29066 83.631415,209.27698 82.349638,197.64653 82.108377,195.45147 82.314057,193.208 82.314057,190.49407 83.408598,191.3288 84.049798,191.78805 84.658375,192.28952 A 553.83227,539.3082 0 0 0 157.93032,243.13117 C 187.63222,260.41506 219.4844,271.95337 253.48766,277.74582 268.65051,280.33021 283.96843,282.12569 299.25732,283.97723 313.35103,285.68819 326.73907,289.75836 339.94694,294.61128 340.7785,294.9126 342.11786,295.07369 342.66896,294.61128 343.21981,294.14812 343.24462,292.8683 343.1726,291.97076 343.0354,290.04222 342.39155,288.10376 342.45274,286.18588 342.72656,278.04763 344.617,270.22847 348.48801,262.97037 351.14533,257.99468 354.09341,253.15155 356.85531,248.24292 361.44957,240.05215 364.9502,231.45846 364.14008,221.94569 363.42001,213.81457 362.0482,205.73934 360.89936,197.64653 360.11441,192.12748 359.52781,186.63246 360.89936,181.1063 362.86545,173.17534 368.34149,167.8714 374.82295,163.33046 381.79061,158.45695 389.6738,155.23378 397.37928,151.72736 409.65099,146.14513 421.34199,139.72488 431.27682,130.60855 438.26567,124.20224 444.12364,117.04686 446.35271,107.67429 448.06644,100.46874 447.69604,93.122294 447.76779,85.801043 447.83639,79.159781 447.83673,72.487997 448.51367,65.892523 449.24116,58.760788 452.77712,52.869408 459.18286,49.04039 468.47622,43.496839 477.72999,44.208605 486.5483,50.036079 489.51174,51.992647 491.9136,54.745481 494.68293,57.007265 495.30581,57.511934 496.3931,57.473404 497.26808,57.687053 497.31497,56.912302 497.39401,56.137086 497.39401,55.358435 497.39401,55.148335 497.16013,54.931307 497.03408,54.717303 493.08072,47.925568 488.29187,41.760721 482.31812,36.525582 466.45665,22.623055 448.43131,12.623542 427.66521,7.3639146 412.97595,3.6547805 398.17437,1.2881361 383.09718,1.3924229 Z M 404.13993,21.74081 C 405.82738,21.618105 407.56864,22.553035 409.10638,24.597263 410.96785,27.079793 412.24606,30.177142 413.04505,33.185278 415.16263,41.144994 416.82215,49.218857 418.76283,57.227192 420.20326,63.103993 421.82109,68.932475 424.88571,74.255269 425.30679,74.987784 425.80379,75.681483 426.52386,76.827808 428.19814,74.633105 429.91517,72.85221 431.10028,70.748352 436.38229,61.463441 439.8674,51.508927 442.503,41.249458 442.61131,40.835643 442.68713,40.415655 442.79862,40.001842 443.06901,38.98505 443.58039,37.936414 444.78301,38.385009 445.34841,38.606109 445.92768,39.787072 445.8628,40.488359 445.61436,43.156857 445.09569,45.799692 444.69951,48.457899 443.40344,57.206201 441.14922,65.664492 436.60182,73.4102 434.40535,77.151204 431.96769,80.681885 427.7802,82.631355 424.53919,84.146427 422.08441,84.002149 419.85901,81.29177 A 39.446591,38.411969 0 0 1 414.61203,72.93968 C 410.55034,64.019247 408.74333,54.454365 406.6909,44.969639 405.8028,40.8509 404.89603,36.739327 403.97162,32.634781 A 6.5283372,6.3569821 0 0 0 403.25172,30.568752 C 402.85211,29.955128 402.18219,29.510323 401.63139,28.987906 401.14516,29.489386 400.38482,29.916971 400.21903,30.506107 398.70666,35.903673 397.2493,41.314512 395.84515,46.739762 395.37351,48.57034 395.16739,50.463828 394.6997,52.294045 393.61919,56.536886 395.063,60.656651 395.22111,64.839512 395.32944,67.630451 395.4779,70.407441 395.40588,73.212927 395.35901,74.881677 394.5884,76.309647 392.67287,76.702518 390.67104,77.109235 389.44265,75.930931 388.93127,74.36724 388.04569,71.656859 387.14893,68.872269 386.8894,66.067134 386.05761,57.017159 385.47071,47.946076 384.90505,38.875521 384.81498,37.4726 384.66444,36.592738 383.16284,35.940428 381.73333,35.319703 380.55991,34.134904 378.78079,32.837385 L 378.76709,32.844052 C 379.00093,36.234769 379.08314,39.257164 379.44729,42.251814 380.32201,49.607843 381.09222,56.975358 379.18038,64.265021 A 22.054819,21.476464 0 0 1 376.29961,70.744356 C 373.91589,74.236579 369.6168,74.809338 366.05193,72.442498 362.48732,70.075672 360.69762,66.547932 359.5705,62.652186 359.09541,61.011481 358.75626,59.332269 358.25943,57.273844 357.79149,58.591948 357.54346,59.626366 357.07155,60.555498 356.08134,62.512063 355.196,64.569811 353.87051,66.301727 351.11576,69.898995 347.20242,70.082939 343.83907,67.004174 341.42621,64.791726 340.09353,61.94454 339.32286,58.908008 338.02308,53.771174 336.9579,48.574107 335.79476,43.41279 L 328.59347,47.494196 C 330.1602,50.0399 332.07096,52.561304 333.37791,55.366434 337.82864,64.893393 337.86164,74.478639 333.07272,83.945616 331.74036,86.575431 329.44588,88.449086 326.82804,89.875785 321.80502,92.610651 315.01443,91.208189 310.53141,86.299554 304.50362,79.704083 302.69954,71.737444 303.33011,63.157361 303.70431,58.027624 304.5437,52.99185 307.39196,48.461898 310.33024,43.787855 314.73329,41.642596 320.13449,41.130827 321.20043,41.029328 322.34124,41.445388 323.42172,41.729308 324.44425,41.999387 325.4133,42.473128 326.43528,42.739663 331.00148,43.931773 335.18305,41.018257 335.60043,36.400288 A 15.620129,15.210691 0 0 1 335.85907,34.404901 C 336.44224,31.890782 338.88422,30.779822 341.23883,31.950993 343.21262,32.9291 344.37936,34.601331 344.93392,36.596226 346.26257,41.361477 347.47164,46.154493 348.71793,50.937133 349.33737,53.300422 349.92453,55.666859 350.54767,58.02695 350.68805,58.552912 350.80565,59.148628 351.14437,59.541149 A 2.4701719,2.4055172 0 0 0 352.62103,60.443535 C 352.94862,60.471575 353.52443,59.830162 353.66797,59.391861 355.04747,55.092948 356.43368,50.793617 357.65455,46.453185 358.18393,44.580727 358.31689,42.605729 358.65906,40.684298 358.91117,39.285279 359.48787,38.033546 361.10466,37.791856 A 2.9777612,2.899539 0 0 1 364.51095,39.832561 C 365.75671,43.524591 366.77241,47.293944 367.91726,51.021107 369.13787,54.986771 370.34813,58.953138 371.68077,62.880114 371.94348,63.651671 372.75341,64.250687 373.30797,64.927483 373.8951,64.215551 374.888,63.557108 374.99949,62.778816 375.46771,59.416128 375.98267,56.014467 375.9178,52.637942 375.77027,45.993133 375.05014,39.356463 375.05014,32.718754 375.05385,29.966501 376.22791,27.174812 377.1098,24.478633 377.46968,23.370634 378.3735,22.224578 379.93309,22.575219 381.42727,22.890731 381.42313,24.144985 381.58495,25.319707 A 59.557047,57.995041 0 0 0 382.63051,31.249876 C 382.81034,31.961452 383.57312,32.532862 384.0702,33.170616 L 384.57794,32.897367 C 384.7869,31.533485 384.79765,30.10241 385.26908,28.833287 385.61121,27.903804 386.46046,26.679948 387.26715,26.532666 387.95863,26.420518 389.38464,27.484004 389.65796,28.286789 390.63015,31.162198 391.29368,34.13824 391.98862,37.097405 392.44623,39.040129 392.75902,41.018605 393.23807,43.511424 394.14565,39.83359 394.72557,36.639 395.75896,33.591819 A 44.772091,43.598136 0 0 1 399.4992,25.233064 C 400.81881,23.045106 402.45243,21.863517 404.13993,21.74081 Z M 316.83081,47.04367 C 315.88105,47.04144 315.05365,47.369101 314.80538,48.539206 314.36204,50.615021 313.75047,52.760627 313.91307,54.822599 314.41334,61.155096 315.8865,67.340319 318.76731,73.055645 A 34.661114,33.752124 0 0 0 324.24011,80.793254 C 326.10903,82.784956 328.49566,82.067071 329.25174,79.455 330.28139,75.913796 330.97728,72.277382 331.81228,68.683656 L 331.33331,68.561026 A 29.31047,28.541827 0 0 0 326.65288,53.033821 C 324.55727,49.842903 321.65082,47.81377 317.80523,47.136973 317.47843,47.081786 317.14741,47.044411 316.83081,47.04367 Z M 267.50979,62.590873 C 268.46292,62.61483 269.51842,63.000302 270.59859,63.795835 272.47809,65.173908 273.81053,67.309155 275.22155,69.223495 276.27689,70.646995 277.07685,72.269971 277.9696,73.80208 278.8626,75.33454 279.73758,76.891378 280.75321,78.644583 281.87662,77.592658 282.78778,76.601022 283.86803,75.840119 284.42628,75.436952 285.30862,75.447617 286.02896,75.272295 286.14415,76.001616 286.56806,76.867345 286.31225,77.442288 A 29.191681,28.42613 0 0 1 283.45746,82.560707 C 282.10391,84.401584 279.96455,84.816321 277.72462,84.030921 A 10.035187,9.7721917 0 0 1 272.40645,79.605623 C 270.5124,76.46404 268.62523,73.314482 266.28494,70.183198 265.92478,72.409839 265.67721,74.654963 265.17641,76.846473 264.38432,80.219451 265.0688,83.233935 266.54498,86.364867 269.25629,92.115329 271.58152,98.041281 274.05555,103.89679 274.22106,104.28967 274.46958,104.77377 274.36895,105.12441 274.07021,106.17989 273.88964,107.51972 273.13725,108.13015 272.4675,108.6767 270.84069,108.82741 270.07718,108.3994 268.4604,107.48802 267.10552,106.08912 265.57878,104.83383 265.10367,107.28478 264.64353,109.88661 264.02409,112.44615 263.62421,114.09786 263.18517,115.7979 262.3928,117.29133 260.17141,121.48838 255.79962,121.96612 252.67065,118.30568 251.29142,116.68591 250.23318,114.75941 249.27528,112.85536 247.7917,109.91004 246.51646,106.86387 245.04374,103.61688 244.4063,104.67945 243.89164,105.55989 243.32622,106.40135 240.75896,110.23712 236.5646,112.28428 232.68987,111.49178 228.62818,110.6606 226.26638,107.86683 225.18615,104.26601 224.1059,100.59847 223.67002,96.751875 222.94993,92.982826 222.81646,92.27125 222.74499,91.544416 222.64064,90.783502 L 217.45524,92.677586 C 218.45628,95.535246 219.84191,98.435181 220.49339,101.4962 221.96982,108.43522 221.05614,115.08293 216.86812,121.09282 212.55086,127.27803 204.70472,128.2276 198.9648,123.19617 197.99288,122.34405 197.22536,121.27503 196.22087,120.14644 194.29106,122.1204 192.68094,123.58543 191.34884,125.29286 190.87003,125.87844 190.78785,126.9862 190.91365,127.79609 191.99416,134.66484 193.34054,141.49249 194.15436,148.38573 A 26.699644,25.999673 0 0 1 193.43451,157.43227 C 191.43928,165.23051 185.03386,168.06035 177.17344,165.56044 167.74657,162.56258 166.89224,155.1608 168.63509,147.35938 169.66104,142.75561 172.63206,139.12222 175.75015,135.66832 177.36323,133.88388 179.22224,132.3098 180.82472,130.51791 181.40815,129.86205 181.96166,128.79563 181.85387,128.00669 181.21643,123.42386 180.37807,118.86632 179.5465,113.95769 178.28962,115.49334 177.23028,116.80733 176.14978,118.09775 170.41012,124.95975 160.81078,123.88662 156.72737,115.9624 A 22.069031,21.490305 0 0 1 154.28999,105.17373 C 154.58501,99.707188 155.39532,94.279132 156.04309,88.83744 A 6.9349918,6.753406 0 0 1 156.83959,86.603461 C 157.5345,85.299204 158.5177,84.212775 160.19938,84.416134 161.78729,84.605657 162.28785,85.898648 162.48621,87.19261 163.24945,92.255985 163.96949,97.327144 164.68957,102.39726 165.23353,106.26461 165.64007,110.16036 167.8906,113.56847 169.92529,116.65398 171.90175,116.80045 174.14486,113.84839 176.6512,110.54178 177.84247,107.07749 176.78341,102.73315 175.32155,96.709419 174.52349,90.523946 173.52217,84.394808 A 6.4489009,6.2799683 0 0 1 173.83556,81.712975 C 174.30007,80.191159 175.4632,79.006011 177.07628,79.139096 A 5.4337223,5.2912153 0 0 1 180.53186,80.803921 C 183.02364,83.787918 183.62109,87.522433 184.26251,91.207378 186.02928,101.30832 187.80535,111.40598 189.58889,121.49936 A 4.879127,4.751056 0 0 0 190.02135,122.32711 C 191.5624,120.74567 193.06366,119.3322 194.37059,117.76851 194.67303,117.40722 194.37768,116.51344 194.26248,115.88243 192.68515,107.10608 193.74396,98.701037 198.56519,91.050093 202.23466,85.226166 208.68384,84.507161 213.98733,88.981396 215.71958,90.440038 217.61407,90.0157 219.48614,89.465242 221.28646,88.935733 222.55437,87.964919 222.44631,85.833035 A 30.473591,29.674316 0 0 1 222.61191,80.717274 C 222.79914,79.293774 223.07601,77.778236 223.76696,76.543899 225.23279,73.931828 228.64186,73.921495 229.86247,76.631871 230.94295,79.044133 231.48316,81.71919 232.0234,84.324165 233.12853,89.63987 234.00785,94.9981 235.12041,100.3099 235.42657,101.77564 236.12145,103.19226 236.8092,104.55259 237.5727,106.05311 238.36762,106.14424 239.49156,104.90315 241.97221,102.15764 243.46373,99.314864 242.52015,95.292778 240.88536,88.287394 239.80216,81.158517 238.55957,74.068666 238.21424,72.091156 238.0016,70.08201 239.16448,68.191811 240.67346,65.737674 243.03543,65.523751 244.73855,67.841254 246.83098,70.691811 247.51485,74.057829 248.2352,77.416958 A 172.1173,167.60365 0 0 0 259.05493,110.82932 2.3943796,2.3316979 0 0 0 260.16343,111.98629 C 260.79718,108.53595 261.34485,105.06787 262.09035,101.63882 262.60491,99.279084 261.91727,97.206951 261.11459,95.07152 258.81347,88.960123 256.32177,82.880251 255.50079,76.337296 255.38559,75.373029 255.16975,74.345578 255.38584,73.434193 255.5585,72.711617 256.19579,71.82789 256.85839,71.568099 257.41269,71.347358 258.54351,71.698044 258.99743,72.178575 260.25749,73.507328 261.30192,75.033338 262.65282,76.769167 262.96929,73.36779 263.26479,70.247003 263.54922,67.122808 263.81413,64.23001 265.41291,62.538163 267.50979,62.590873 Z M 53.48974,75.520215 C 55.099644,75.548607 55.963991,76.824067 56.22273,78.146067 56.871295,81.431741 57.339012,84.755887 57.774661,88.076342 58.033927,90.043205 58.091923,92.032117 58.239967,94.013172 L 58.70664,94.054494 C 59.499012,92.210428 60.248398,90.345911 61.079698,88.529535 A 25.057724,24.400846 0 0 1 67.561132,79.864207 10.038831,9.7757413 0 0 1 68.926938,78.893843 C 71.28154,77.498021 73.747144,76.702074 76.364988,78.150067 78.982565,79.598062 79.951987,82.076798 79.912255,84.812014 79.836517,90.281742 77.88466,95.188267 74.669358,99.634106 74.377517,100.03408 74.078713,100.42302 73.8017,100.82974 73.747409,100.90675 73.772959,101.03578 73.772959,101.07766 76.344193,100.43601 78.897383,99.595177 81.51893,99.184913 88.879084,98.027932 93.606029,101.77927 93.919327,109.04054 94.020494,111.39673 93.60165,113.77471 93.400642,116.13835 93.342383,116.79385 93.217454,117.44194 93.084511,118.36432 94.639592,118.23763 96.019101,118.24216 97.329745,117.96179 97.761939,117.86738 98.261957,117.06738 98.334254,116.53822 99.19866,110.33527 100.78693,104.32466 103.66748,98.714394 105.62987,94.899567 108.18219,91.670778 112.6684,90.450275 115.27936,89.738698 117.67342,90.057704 119.63978,91.979138 121.60561,93.900568 121.84016,96.261155 121.04117,98.782374 119.52131,103.57176 116.31244,106.91253 111.63105,108.85526 110.42502,109.35283 109.96043,109.97091 110.1188,111.17722 110.56531,114.60981 110.69123,118.11267 111.49419,121.4647 112.37661,125.14999 115.03877,125.74272 117.59517,122.93758 120.5369,119.69769 123.18669,116.20832 125.95972,112.82471 126.66152,111.96584 127.24437,110.98772 128.07276,110.26549 128.53356,109.86233 129.37684,109.869 130.05031,109.69367 A 10.47828,10.203397 0 0 1 130.28023,111.70905 2.8804703,2.8051353 0 0 1 129.63837,113.01798 C 126.12063,117.75838 122.73989,122.62495 118.99519,127.18294 116.17899,130.61589 112.30896,132.47485 107.64584,132.32402 102.75629,132.16645 99.582775,129.45946 98.696923,124.75702 98.516834,123.8034 98.333821,122.85345 98.124867,121.76994 96.119314,122.01198 94.181863,122.14083 92.305808,122.53371 91.776419,122.64585 91.358752,123.49119 90.998849,124.07323 89.162257,127.17648 87.535512,130.40946 85.508241,133.38636 83.837434,135.84085 81.234419,137.29166 78.267267,137.99294 75.808058,138.59591 73.499348,138.41705 71.673611,136.49206 69.787228,134.50037 69.019844,132.07144 70.060094,129.56088 A 13.32304,12.973397 0 0 1 73.340501,124.79168 C 76.303946,122.22858 79.73249,120.29026 83.693549,119.452 84.996774,119.17517 85.461638,118.5817 85.320748,117.31932 85.097766,115.32442 85.126395,113.2906 84.76649,111.31984 83.707439,105.56583 79.495449,103.12284 73.986454,105.45098 70.759768,106.81486 68.001263,109.18848 64.915731,110.9133 61.404881,112.87661 60.799142,115.38108 62.17864,119.03479 64.162218,124.28377 65.700218,129.69361 67.342163,135.06184 A 22.919143,22.317933 0 0 1 68.170133,139.54979 C 68.429402,142.55474 66.388051,144.01405 63.507497,142.93408 61.285577,142.09261 59.881744,140.36308 58.765485,138.41681 55.863218,133.34669 54.458312,127.76907 53.255722,122.15916 50.526122,109.43455 49.85253,96.533798 50.255867,83.560403 A 29.778343,28.997517 0 0 1 51.02362,78.300693 C 51.311758,77.007075 51.71856,75.492174 53.48974,75.520215 Z M 68.296041,84.935975 C 67.623497,85.023062 66.732479,85.825836 66.048889,86.347537 65.573783,86.705283 65.2824,87.30467 64.969105,87.827082 A 47.28198,46.041985 0 0 0 59.416914,102.27729 C 59.031586,104.21967 59.351223,106.29293 59.351223,108.30876 L 60.233936,108.51536 C 62.783186,105.76631 65.50875,103.15787 67.82389,100.24058 70.895389,96.397723 71.349253,91.870705 70.344754,87.228601 70.153812,86.348448 69.329547,85.131273 68.569747,84.94531 68.483815,84.92561 68.392118,84.923533 68.296041,84.935975 Z M 209.53271,91.653901 C 208.44522,91.646878 207.4729,92.446628 206.86541,94.0345 A 24.020681,23.390797 0 0 0 205.53656,99.711414 C 204.84906,106.02971 205.26672,112.1582 209.41502,117.51259 211.10383,119.70055 212.73396,119.64478 214.15293,117.24601 216.14392,113.87339 216.7523,110.1635 216.8818,105.89617 216.79203,101.43259 215.44559,96.933113 212.16169,93.142773 211.29365,92.15185 210.37854,91.659368 209.53271,91.653901 Z M 383.82249,93.922537 C 383.93394,93.917172 384.0424,93.922788 384.14549,93.939863 384.84754,94.059114 385.71914,95.184097 385.88491,95.987233 A 33.080407,32.212922 0 0 1 386.60476,102.33061 C 386.60846,110.13949 386.47208,117.9513 386.39266,125.76337 V 128.8411 C 387.69267,127.76113 388.68264,126.95535 389.65113,126.13126 401.11136,116.3696 412.57564,106.61086 424.04539,96.856298 424.70406,96.298746 425.36723,95.670995 426.14478,95.338097 426.6633,95.117353 427.39113,95.362949 428.02514,95.398079 427.98173,96.011347 428.16531,96.775654 427.85545,97.206856 A 84.041227,81.853596 0 0 1 423.64309,102.58919 C 410.74285,117.69472 397.8106,132.7716 384.84754,147.82057 383.96912,148.82352 382.59293,149.39977 381.4481,150.17451 380.89697,149.01718 380.033,147.90589 379.8455,146.69959 378.51026,138.08472 377.31143,129.45209 376.07654,120.82624 375.9751,120.1214 375.89245,119.41645 375.74124,118.20305 373.43324,121.02557 371.46357,123.51896 369.38571,125.97664 363.39386,133.0245 357.35761,140.03766 351.27712,147.01549 350.78746,147.57268 349.78676,147.70894 349.02722,148.04184 349.13899,147.2284 348.98779,146.26434 349.38717,145.62658 355.88784,135.20078 362.41112,124.788 368.95737,114.38822 372.49091,108.77795 376.03824,103.16745 379.60056,97.557412 380.1625,96.677262 380.72098,95.647738 381.45219,95.040856 382.09173,94.510151 383.04231,93.960078 383.82249,93.922537 Z M 117.13397,94.338409 C 116.19065,94.755775 114.93417,94.924729 114.35445,95.626013 111.93152,98.557177 111.19647,102.10824 110.72507,106.22807 114.66,104.0683 117.16636,101.38276 118.06321,97.589404 118.28964,96.625143 117.47242,95.429017 117.13397,94.338409 Z M 347.32066,114.3389 C 347.54021,114.97346 348.03069,115.67589 347.90092,116.23699 345.15357,128.15845 339.10049,137.81819 327.57801,143.51257 325.55445,144.51516 323.23452,144.95636 320.94056,145.68923 325.18606,151.72006 327.99963,158.3262 329.77453,165.37383 333.37541,179.65893 333.10801,193.77953 328.03783,207.71009 A 32.623103,31.767521 0 0 1 319.89772,219.88367 C 315.70998,223.84969 310.48456,224.12611 305.11196,223.09867 291.85007,220.56007 284.53039,212.01945 280.98722,199.93649 279.96101,196.38464 279.57251,192.64968 278.88105,188.95055 276.97267,189.97444 275.16414,191.05791 273.22348,191.93096 270.55533,193.13372 267.94512,192.75573 266.02219,190.5887 264.2833,188.62504 262.45433,186.52429 261.48956,184.16135 259.19932,178.51596 257.37043,172.6851 255.36805,166.92402 255.06933,166.06834 254.85648,165.182 254.15416,164.21419 253.33318,166.39505 252.3103,168.52679 251.73457,170.77082 250.35532,176.1355 248.82205,181.53086 248.08054,187.00448 247.67695,189.97074 248.71283,193.14108 249.20275,196.20563 250.66091,205.36101 252.23178,214.50528 253.5999,223.6745 253.81228,225.10155 253.44877,226.73859 252.90878,228.11313 251.80312,230.9321 247.79898,231.59877 245.76087,229.20746 244.35303,227.55966 243.04186,225.57435 242.52015,223.5372 240.69096,216.39129 239.2216,209.16097 237.61938,201.96253 237.47531,201.24741 237.33504,200.52954 237.11576,199.41798 235.56014,201.89697 234.35334,204.22408 232.76514,206.27187 229.14679,210.93526 225.76211,215.88276 221.49518,219.92899 216.78174,224.40322 210.6314,226.25175 204.15022,223.76248 201.33428,222.68251 198.96533,220.50067 196.34404,218.78934 196.22565,220.29021 196.20346,222.14906 195.90473,223.96507 195.28529,227.6855 194.61553,231.40566 193.7657,235.08031 193.24001,237.35948 192.10133,239.31985 189.33572,239.69888 186.27878,240.11944 183.58596,239.32295 181.9223,236.79178 179.70779,233.40426 177.28801,229.99953 175.93765,226.27237 172.84126,217.72032 170.3174,208.97253 167.61005,200.28705 166.42864,196.49672 165.45687,192.64362 164.21057,188.87458 A 17.892439,17.423143 0 0 0 161.93058,184.4906 C 160.54075,182.50243 158.21794,182.69954 157.49786,184.98511 A 98.942058,96.347387 0 0 0 154.58149,196.67217 C 153.94404,200.26625 153.72523,203.93998 153.53455,207.59012 A 8.2132577,7.9980432 0 0 0 154.39811,211.26232 C 156.37506,215.28051 158.58265,219.18581 160.51961,223.21464 A 25.565313,24.895221 0 0 1 162.40546,228.92355 C 163.0249,232.0023 160.81474,234.20013 157.59229,233.6181 A 11.598402,11.294006 0 0 1 153.09114,231.56672 C 148.79163,228.51636 145.97974,224.2735 143.41963,219.80635 137.36694,209.23492 131.88688,198.4362 129.0458,186.55662 126.11095,174.29479 125.7033,162.00476 129.30445,149.81995 130.21917,146.70641 131.83199,143.72614 133.54968,140.92137 135.12303,138.36147 137.57112,136.56585 140.81528,136.23615 144.05972,135.90644 146.69178,136.95888 148.32313,139.69374 151.7111,145.37784 152.70558,151.61891 152.04694,158.06675 A 44.689376,43.517219 0 0 1 143.28962,179.96798 C 142.86854,180.52554 142.56596,181.51466 142.77094,182.11798 144.98889,188.64638 147.3225,195.13925 149.6342,201.63997 A 3.7662923,3.6675441 0 0 0 150.15287,202.31042 C 150.85124,197.89582 151.28361,193.64997 152.24812,189.52636 153.00818,186.30068 154.009,182.99678 155.63664,180.12527 159.91073,172.59001 168.1779,172.50654 172.59977,180.00663 A 49.651218,48.349192 0 0 1 177.42115,191.65372 C 179.71485,200.07622 181.36444,208.66099 183.54266,217.11119 184.77068,221.88673 186.51658,226.53549 188.0616,231.23083 A 21.111424,20.557625 0 0 0 189.03327,233.36218 L 189.66417,233.39017 C 190.47057,229.69424 191.33129,226.00605 192.07281,222.29626 193.3657,215.85161 193.16455,209.30882 193.36608,202.78361 193.65421,193.37946 195.41039,184.24933 199.66276,175.6973 202.54358,169.88402 206.7501,165.43014 213.49055,164.02758 220.46538,162.56219 225.48814,166.16695 225.8663,172.90617 226.07156,176.53183 224.71477,179.87626 222.7953,182.93374 A 23.451874,22.836798 0 0 1 208.78822,193.32387 C 207.87006,193.56945 207.27872,193.80728 207.27872,194.97136 207.20324,200.86874 208.2187,206.50689 211.07781,211.76617 212.7923,214.90102 215.26521,215.91557 218.5528,214.41468 220.26678,213.63285 222.07803,212.56226 223.20859,211.1597 227.3892,205.91746 231.39094,200.5156 235.31201,195.08065 235.96033,194.17956 236.14683,192.7978 236.14683,191.64438 236.07825,183.84259 235.76445,176.03784 235.82932,168.23961 235.82932,165.66942 236.67664,163.09133 237.2704,160.54598 237.5625,159.30454 238.37548,158.05962 239.8159,158.33999 240.79179,158.51532 242.13063,159.42726 242.37508,160.26873 243.39097,163.76095 244.13299,167.34199 244.83162,170.91478 245.36817,173.65 245.69652,176.41944 246.52861,179.22422 246.94969,177.39045 247.23657,175.52101 247.81232,173.73657 249.31415,169.15375 250.60787,164.48733 252.5557,160.09012 254.60469,155.45476 258.85364,155.27181 262.02602,159.2797 265.19843,163.2876 267.35904,167.8147 269.02615,172.5796 270.2719,176.08601 271.52381,179.5926 272.79102,183.09901 273.03625,183.77227 273.36127,184.4203 273.64224,185.05841 277.0665,184.08741 279.12942,181.42663 279.40246,177.93794 280.14079,168.49866 282.11757,159.35423 286.53943,150.83698 289.16097,145.76012 292.79703,141.60058 298.16248,139.02329 300.84123,137.74032 303.52095,137.09581 306.50239,137.74101 310.12501,138.52286 313.60687,139.49378 316.80071,141.50252 317.93549,142.21445 319.81081,142.2253 321.25123,141.97971 328.71201,140.71377 333.89661,136.12393 338.17465,130.40861 A 47.692281,46.4416 0 0 0 345.28288,116.55822 2.4596045,2.3948702 0 0 1 345.70029,115.55986 15.782281,15.368267 0 0 1 347.32066,114.3389 Z M 84.387399,123.49741 C 80.793927,124.74205 77.453767,126.40827 75.077186,129.49023 74.151606,130.69299 73.953112,132.13683 74.82811,133.43435 75.170268,133.93582 76.041366,134.44123 76.609956,134.37805 78.914774,134.12181 81.17589,133.36876 82.234682,131.22303 83.394102,128.87003 84.11753,126.2958 85.031984,123.84131 Z M 182.42593,134.16079 C 178.99452,137.84572 175.54171,141.54196 173.74114,146.3317 172.54596,149.50131 172.51048,152.78609 173.31689,156.04336 173.99034,158.7502 176.48204,160.5073 179.4206,160.54598 182.02361,160.58076 184.01471,159.19197 184.46096,156.11001 184.91461,153.08377 184.80243,149.9361 184.55401,146.87153 184.21953,142.64289 183.52154,138.45646 182.98156,134.24876 Z M 142.95843,139.68974 C 142.27093,140.61888 141.26327,141.44362 140.94256,142.49555 137.35253,154.15439 139.02981,165.73222 141.5502,177.60472 A 8.2817617,8.0647645 0 0 0 142.26732,176.96225 8.8902865,8.6570939 0 0 0 142.79557,176.20914 C 146.61257,170.16766 148.85607,163.62824 149.06899,156.52455 149.21967,151.40866 148.49297,146.39751 145.71332,141.91973 145.11904,140.97994 143.89513,140.42226 142.95843,139.68974 Z M 305.59643,143.79515 C 303.71343,143.72725 302.16536,144.84292 300.83525,147.21409 299.9171,148.8587 299.06982,150.65778 298.76739,152.4738 298.03652,156.84926 297.64705,161.29578 297.1826,165.15257 297.71941,171.88502 298.07631,178.03308 298.73865,184.13736 299.53817,191.48665 300.84202,198.74831 303.9747,205.56809 305.31792,208.49602 307.32341,210.84495 310.22622,212.40865 312.7609,213.77252 314.80903,213.56543 316.92661,211.64754 319.44673,209.36837 321.48497,206.66458 322.36658,203.44208 323.64174,198.81027 324.99287,194.11971 325.44308,189.37575 326.52306,178.02566 325.01427,166.98045 319.55559,156.6965 317.10699,152.08563 313.92334,148.04259 309.37224,145.18139 307.97593,144.30301 306.72622,143.83588 305.59643,143.79515 Z M 83.392469,149.03219 A 47.31769,46.07676 0 0 1 87.743073,149.2308 C 97.479811,149.99738 107.2116,150.82233 116.93827,151.70604 117.84558,151.79015 118.69922,152.44917 119.57819,152.84169 118.72809,153.43437 117.96467,154.35094 117.01764,154.59582 110.0068,156.43349 102.95803,158.10231 95.921509,159.85552 94.910123,160.10466 93.904645,160.38062 92.626052,160.73125 94.574141,163.51545 96.35993,166.15238 98.235715,168.72613 103.64434,176.13503 109.11385,183.50185 114.49679,190.92461 115.27114,191.98044 116.75469,193.17295 115.27138,194.5968 113.94617,195.86593 112.69313,194.6667 111.56946,194.00766 96.009471,184.8841 80.484339,175.70578 64.993738,166.47481 61.688135,164.50406 58.588606,162.20429 55.394757,160.05147 55.124631,159.87614 54.768126,159.71555 54.674906,159.47031 A 13.564264,13.208341 0 0 1 54.23423,157.69486 C 54.799376,157.60401 55.419525,157.29914 55.880592,157.46026 59.704734,158.79647 63.507464,160.19902 67.302475,161.61898 75.933809,164.84858 84.556361,168.102 93.70994,171.54524 90.101629,166.92018 86.706479,162.6959 83.480056,158.35865 A 71.320514,69.450526 0 0 1 79.329255,151.83667 C 78.266762,150.03093 78.659125,149.2377 80.819606,149.09751 A 47.31769,46.07676 0 0 1 83.392469,149.03219 Z M 217.83841,168.3489 C 216.76257,168.29208 215.62013,168.71841 214.63875,169.66184 210.84348,173.31553 209.47869,178.09235 208.39818,182.93107 207.83993,185.39267 207.67093,187.94081 207.27872,190.77399 208.39154,190.55963 209.08284,190.54247 209.67368,190.29014 214.63896,188.18628 218.4194,184.81026 220.61246,179.96798 221.91939,177.07519 222.49202,173.97852 221.17768,170.90011 220.49511,169.29468 219.22165,168.42196 217.83841,168.3489 Z M 327.56707,235.50819 C 328.36976,235.42407 329.24756,236.16787 330.08655,236.51853 329.59661,237.26523 329.29112,238.31643 328.59621,238.71253 321.78002,242.58379 314.88474,246.34356 308.04338,250.14101 303.74166,252.51812 299.44162,254.90215 295.14485,257.29347 294.61173,257.59159 294.11145,257.94166 293.5929,258.26783 L 293.66817,258.69969 C 300.52065,259.69552 307.38093,260.65225 314.21141,261.68676 317.61077,262.20207 321.00599,262.78047 324.36194,263.51686 325.16145,263.69219 325.78061,264.61786 326.50096,265.19635 325.81665,265.85577 325.20003,266.88657 324.37562,267.11443 316.96514,269.1409 309.33544,269.53773 301.69059,269.84292 291.05051,270.27413 280.42164,270.83135 269.78158,271.24515 268.87401,271.28031 267.54833,270.94265 267.07324,270.30811 266.2271,269.17918 267.39005,268.30624 268.24333,267.60495 274.79681,262.20974 281.35057,256.81394 287.90386,251.4166 288.31091,251.0798 288.69657,250.7195 289.39148,250.10234 286.77364,250.10234 284.54363,250.01467 282.32567,250.10234 264.30012,250.82917 246.27795,251.56143 228.25716,252.30033 227.50822,252.3284 226.75961,252.40911 226.01411,252.47228 224.80756,252.57377 223.51759,252.42628 223.31259,251.11137 223.07822,249.61084 224.60608,249.45263 225.63229,249.25995 229.38095,248.55865 233.13661,247.86743 236.91732,247.38052 251.56533,245.49384 266.23391,243.75883 280.87501,241.82357 289.18909,240.72231 297.44553,239.25619 305.75244,238.11271 313.00455,237.11011 320.28609,236.28648 327.56707,235.50819 Z"
     id="path864" />
</svg>
