<?xml version="1.0" encoding="UTF-8" standalone="no"?>
<svg
   xmlns:dc="http://purl.org/dc/elements/1.1/"
   xmlns:cc="http://creativecommons.org/ns#"
   xmlns:rdf="http://www.w3.org/1999/02/22-rdf-syntax-ns#"
   xmlns:svg="http://www.w3.org/2000/svg"
   xmlns="http://www.w3.org/2000/svg"
   xmlns:sodipodi="http://sodipodi.sourceforge.net/DTD/sodipodi-0.dtd"
   xmlns:inkscape="http://www.inkscape.org/namespaces/inkscape"
   height="500"
   width="500"
   inkscape:version="1.0 (4035a4fb49, 2020-05-01)"
   sodipodi:docname="lissajous.svg"
   id="svg22"
   version="1.1"
   viewBox="0 0 500 500">
  <metadata
     id="metadata28">
    <rdf:RDF>
      <cc:Work
         rdf:about="">
        <dc:format>image/svg+xml</dc:format>
        <dc:type
           rdf:resource="http://purl.org/dc/dcmitype/StillImage" />
        <dc:title></dc:title>
      </cc:Work>
    </rdf:RDF>
  </metadata>
  <defs
     id="defs26" />
  <sodipodi:namedview
     inkscape:current-layer="svg22"
     inkscape:window-maximized="1"
     inkscape:window-y="-8"
     inkscape:window-x="1912"
     inkscape:cy="194.96946"
     inkscape:cx="269.02463"
     inkscape:zoom="1.2182861"
     showgrid="false"
     id="namedview24"
     inkscape:window-height="1017"
     inkscape:window-width="1920"
     inkscape:pageshadow="2"
     inkscape:pageopacity="0"
     guidetolerance="10"
     gridtolerance="10"
     objecttolerance="10"
     borderopacity="1"
     bordercolor="#666666"
     pagecolor="#ffffff" />
  <path
     id="path20"
     fill-rule="evenodd"
     style="fill:none;stroke:#000000;stroke-width:2.40789"
     d="M 250.14556,219.81381 243.89259,220.01034 237.67425,220.59894 231.52499,221.57673 225.47885,222.93884 219.56934,224.67857 213.82919,226.78732 208.29017,229.25468 202.983,232.06852 197.93704,235.215 193.18027,238.67864 188.73904,242.44252 184.63796,246.48821 180.89976,250.79597 177.54518,255.34486 174.59283,260.1128 172.0591,265.0768 169.95806,270.21292 168.30141,275.49654 167.09841,280.90249 166.3558,286.40507 166.07779,291.97834 166.26606,297.59617 166.91971,303.23239 168.03528,308.86097 169.60679,314.45612 171.62576,319.99252 174.08128,325.4453 176.96005,330.79035 180.24645,336.00432 183.92266,341.06482 187.96875,345.9505 192.3628,350.64119 197.081,355.11801 202.09782,359.36347 207.38613,363.36154 212.91738,367.09773 218.66173,370.55924 224.58822,373.73493 230.66502,376.61543 236.8595,379.1932 243.13848,381.46253 249.46844,383.41956 255.81562,385.06234 262.1463,386.39082 268.42697,387.40679 274.62449,388.11399 280.70631,388.51788 286.6406,388.62587 292.39654,388.447 297.94437,387.99206 303.25563,387.2735 308.3033,386.3053 313.06197,385.10287 317.50796,383.68306 321.61946,382.06398 325.37668,380.26485 328.76191,378.30601 331.75966,376.20872 334.35675,373.99501 336.54235,371.6876 338.30809,369.30974 339.64804,366.88512 340.55883,364.43764 341.0396,361.99132 341.092,359.57018 340.72025,357.19807 339.93106,354.89853 338.73359,352.69468 337.13944,350.60897 335.16253,348.66324 332.81906,346.87842 330.12742,345.27449 327.10807,343.87033 323.7834,342.68363 320.17765,341.73076 316.31678,341.02667 312.22824,340.58486 307.94092,340.41716 303.48491,340.53385 298.89138,340.94343 294.19234,341.65261 289.42056,342.6663 284.60925,343.98762 279.79201,345.61771 275.00255,347.55589 270.2745,349.79958 265.64128,352.34429 261.13587,355.18371 256.79058,358.30966 252.63697,361.71219 248.70558,365.37959 245.02581,369.29849 241.6257,373.45386 238.53182,377.82923 235.76912,382.40657 233.36072,387.1666 231.32787,392.08872 229.68977,397.15124 228.46346,402.33143 227.66374,407.60568 227.30309,412.94962 227.39156,418.3382 227.93679,423.74595 228.94385,429.14697 230.4153,434.51517 232.35114,439.82443 234.74882,445.04864 237.6032,450.16191 240.90669,455.13875 244.64914,459.95415 248.81803,464.58369 253.39844,469.00378 258.37319,473.1917 263.72291,477.12576 269.42615,480.78541 275.45948,484.15134 281.79766,487.20566 288.41374,489.93189 295.27921,492.31511 302.36421,494.34208 309.63761,496.00122 317.06726,497.28274 324.62009,498.1787 332.26238,498.68298 339.95989,498.79142 347.67803,498.50177 355.38214,497.81374 363.03758,496.72892 370.60998,495.25091 378.06543,493.38518 385.37061,491.13911 392.49307,488.5219 399.40134,485.54456 406.06509,482.21982 412.45538,478.56209 418.54471,474.58735 424.30728,470.31305 429.71906,465.75809 434.75793,460.94262 439.40382,455.888 443.63884,450.61665 447.44732,445.15188 450.81593,439.5179 453.73377,433.73954 456.19239,427.84217 458.18585,421.8516 459.71073,415.79386 460.76624,409.69514 461.35407,403.58157 461.4785,397.47911 461.14632,391.41346 460.36681,385.4098 459.15164,379.49276 457.51488,373.68624 455.47286,368.01327 453.04408,362.49595 450.24913,357.15523 447.11053,352.01088 443.65267,347.08134 439.90159,342.38363 435.88488,337.93329 431.63152,333.74424 427.17169,329.82877 422.53664,326.19741 417.75847,322.85897 412.86997,319.82037 407.90441,317.08675 402.89541,314.66129 397.87667,312.54536 392.88184,310.73836 387.9443,309.23791 383.09698,308.03967 378.37217,307.13753 373.80133,306.52355 369.41495,306.18812 365.24232,306.11987 361.31139,306.30587 357.64862,306.73167 354.27884,307.38135 351.22508,308.23768 348.50844,309.28213 346.14801,310.49513 344.16071,311.85605 342.56125,313.34336 341.36198,314.93478 340.57288,316.60744 340.20148,318.33794 340.25281,320.10251 340.72939,321.87722 341.63118,323.63803 342.95563,325.36099 344.69767,327.02238 346.84972,328.59877 349.40176,330.06728 352.34137,331.40568 355.65383,332.59242 359.32216,333.60688 363.32723,334.4295 367.6479,335.04178 372.26108,335.42649 377.14193,335.56771 382.26395,335.45102 387.59915,335.06349 393.11817,334.39381 398.79055,333.43234 404.58474,332.17115 410.46846,330.60417 416.40874,328.72711 422.37216,326.53756 428.32505,324.03493 434.2337,321.22066 440.06447,318.09792 445.78405,314.67186 451.35964,310.94942 456.75911,306.93945 461.95123,302.65249 466.90578,298.1008 471.59378,293.29838 475.98762,288.26077 480.06125,283.005 483.79028,277.54953 487.15219,271.91412 490.12637,266.11979 492.69431,260.18857 494.83968,254.14357 496.54844,248.00867 497.80889,241.80852 498.61173,235.5683 498.95021,229.31372 498.82002,223.07075 498.21946,216.86551 497.14936,210.72422 495.61312,204.67287 493.61666,198.7373 491.16845,192.94288 488.27939,187.31445 484.9628,181.87617 481.23435,176.6514 477.11193,171.66254 472.6156,166.93092 467.76746,162.47672 462.59156,158.3188 457.11369,154.47462 451.36133,150.96015 445.36342,147.78978 439.15025,144.97624 432.7533,142.53053 426.20502,140.46184 419.53869,138.77752 412.78821,137.48306 405.98793,136.58201 399.17246,136.07598 392.37647,135.96467 385.63448,136.2458 378.98072,136.91518 372.44892,137.96672 366.07206,139.39245 359.88229,141.18257 353.9107,143.32551 348.18713,145.80799 342.74004,148.61509 337.59635,151.73035 332.78127,155.13583 328.31818,158.81224 324.22847,162.73903 320.53151,166.8945 317.24442,171.25593 314.38207,175.79971 311.95696,180.50146 309.97914,185.33616 308.45622,190.27828 307.39328,195.30198 306.7928,200.38116 306.65476,205.48968 306.97655,210.60145 307.75304,215.69063 308.97657,220.73171 310.63703,225.69969 312.72192,230.57019 315.21638,235.31962 318.10332,239.92528 321.36351,244.36545 324.97568,248.61964 328.91665,252.66848 333.16143,256.49406 337.68344,260.07986 342.45458,263.4109 347.44543,266.47382 352.62542,269.25697 357.96296,271.75039 363.42571,273.94593 368.98067,275.83732 374.5944,277.42008 380.23323,278.69166 385.86344,279.65139 391.45143,280.30048 396.96394,280.64203 402.36821,280.68099 407.63221,280.4241 412.72475,279.8799 417.61573,279.05865 422.27627,277.97225 426.67889,276.63419 430.79764,275.05947 434.60828,273.26446 438.0884,271.26686 441.21755,269.08562 443.97732,266.74069 446.35156,264.25306 448.32628,261.64454 449.88994,258.93762 451.03335,256.15545 451.74981,253.32154 452.03512,250.45981 451.88762,247.59423 451.30816,244.74886 450.30013,241.94763 448.86945,239.21422 447.02452,236.57187 444.77614,234.04334 442.13753,231.65064 439.12414,229.41503 435.75369,227.35684 432.046,225.49531 428.02284,223.84858 423.70791,222.43344 419.12661,221.26534 414.30595,220.35828 409.2744,219.72463 404.06169,219.37521 398.69865,219.31911 393.2171,219.56364 387.64956,220.11435 382.02917,220.9749 376.38943,222.14715 370.76403,223.63097 365.18671,225.42443 359.691,227.5237 354.31002,229.92304 349.07638,232.61489 344.02191,235.58987 339.17753,238.8369 334.57306,242.34309 330.237,246.094 326.19647,250.07362 322.47697,254.26442 319.10226,258.64753 316.09423,263.20278 313.4728,267.90882 311.25573,272.74329 309.4586,277.68283 308.09468,282.70331 307.17485,287.77992 306.70755,292.88729 306.69871,297.99966 307.15176,303.09102 308.06755,308.13523 309.44438,313.10615 311.278,317.97787 313.56161,322.7247 316.28593,327.32149 319.43923,331.7436 323.00739,335.96718 326.97399,339.96922 331.32037,343.72766 336.02578,347.2216 341.06746,350.43132 346.42075,353.33845 352.05926,355.92602 357.95503,358.17863 364.07862,360.08248 370.39933,361.62542 376.88532,362.79711 383.50386,363.58897 390.22143,363.99432 397.00396,364.00835 403.81699,363.62818 410.62588,362.85287 417.39595,361.68342 424.0928,360.1228 430.68233,358.17583 437.13105,355.8493 443.40622,353.15181 449.47604,350.0938 455.30983,346.68747 460.87819,342.94664 466.15316,338.88683 471.10839,334.52502 475.71927,329.87965 479.96308,324.97046 483.81907,319.81845 487.26866,314.44568 490.29546,308.87523 492.88539,303.13102 495.02678,297.23768 496.71038,291.22043 497.92945,285.10496 498.67979,278.91726 498.95973,272.68347 498.7702,266.42975 498.11465,260.18216 496.99908,253.96648 495.43197,247.80809 493.42426,241.73181 490.98925,235.76183 488.14256,229.92143 484.90202,224.23308 481.28757,218.71808 477.32115,213.39663 473.02656,208.28761 468.42933,203.40851 463.5566,198.77538 458.43693,194.40268 453.10016,190.30324 447.57722,186.48818 441.89997,182.96688 436.10103,179.74687 430.21356,176.83389 424.27109,174.23176 418.30736,171.94245 412.35607,169.96602 406.45074,168.30065 400.62447,166.94264 394.90984,165.88647 389.33861,165.12481 383.94161,164.64855 378.74859,164.44692 373.78796,164.5075 369.08673,164.8163 364.6703,165.3579 360.56232,166.11546 356.78455,167.0709 353.3568,168.20496 350.29671,169.49733 347.61975,170.92678 345.33909,172.47128 343.46551,174.1081 342.00737,175.81401 340.97055,177.56536 340.35841,179.33825 340.17178,181.10867 340.40896,182.8526 341.0657,184.54624 342.13528,186.16606 343.60851,187.68898 345.47376,189.09252 347.71706,190.35492 350.32221,191.45525 353.27079,192.37356 356.54231,193.09099 360.11437,193.58989 363.96267,193.85392 368.06128,193.86814 372.3827,193.61911 376.89803,193.095 381.57716,192.28559 386.38893,191.18242 391.30128,189.77878 396.28147,188.06978 401.29623,186.05241 406.312,183.72549 411.29505,181.08976 416.21173,178.14784 421.02863,174.90425 425.71279,171.36533 430.23186,167.5393 434.55432,163.43614 438.64962,159.0676 442.48837,154.44707 446.04254,149.58959 449.28555,144.51172 452.19251,139.23147 454.74025,133.76818 456.90758,128.14245 458.67531,122.37601 460.02639,116.49162 460.94606,110.51291 461.42185,104.46429 461.44373,98.370795 461.00409,92.257959 460.09787,86.151676 458.72252,80.078046 456.87807,74.063246 454.56709,68.133377 451.79473,62.314328 448.56864,56.631628 444.89894,51.110308 440.79819,45.774763 436.28134,40.648622 431.36556,35.75461 426.07028,31.114423 420.41692,26.748617 414.42895,22.67649 408.13162,18.915969 401.5519,15.483523 394.71829,12.394062 387.6607,9.6608613 380.41022,7.2954827 372.99907,5.3077156 365.46027,3.7055197 357.82756,2.4949824 350.13521,1.6802847 342.41776,1.2636783 334.70992,1.2454731 327.04631,1.6240356 319.46129,2.395798 311.98879,3.5552779 304.66209,5.0951085 297.51364,7.0060804 290.57494,9.2771908 283.87625,11.895706 277.44655,14.847231 271.31329,18.115789 265.50228,21.683911 260.03752,25.532729 254.94113,29.642086 250.23314,33.990642 245.93144,38.555993 242.05168,43.314797 238.60716,48.242899 235.60877,53.315469 233.06494,58.507133 230.98159,63.792118 229.3621,69.144391 228.20727,74.537798 227.51537,79.946219 227.28211,85.343698 227.50067,90.704595 228.16178,96.003721 229.2537,101.21648 230.76238,106.31899 232.67147,111.28824 234.96246,116.10218 237.61473,120.73988 240.60574,125.1816 243.91111,129.40891 247.50478,133.40484 251.35916,137.15388 255.44525,140.64213 259.73286,143.85734 264.19074,146.789 268.7868,149.42836 273.48825,151.76851 278.2618,153.80438 283.07385,155.53277 287.8907,156.9524 292.6787,158.06384 297.4045,158.86958 302.03514,159.37393 306.53839,159.58307 310.88277,159.50494 315.03781,159.14923 318.97426,158.52729 322.66416,157.65211 326.08107,156.53818 329.2002,155.20144 331.99855,153.65914 334.45501,151.92982 336.55055,150.03312 338.26824,147.98968 339.59343,145.82104 340.51379,143.5495 341.01935,141.19797 341.10263,138.78988 340.75862,136.34898 339.98483,133.89925 338.78133,131.46473 337.15069,129.0694 335.09804,126.73701 332.63096,124.49095 329.75951,122.35415 326.49613,120.34887 322.85559,118.49662 318.85489,116.81804 314.51317,115.33273 309.85161,114.05918 304.89331,113.01462 299.66316,112.21495 294.18766,111.67462 288.49485,111.40657 282.61406,111.4221 276.57582,111.73087 270.41166,112.34076 264.15391,113.25789 257.83553,114.48654 251.48994,116.02912 245.15084,117.88618 238.85197,120.05636 232.62695,122.53641 226.5091,125.32122 220.53123,128.40382 214.72546,131.7754 209.12304,135.42542 203.75419,139.34156 198.64787,143.50988 193.8317,147.91483 189.33172,152.53939 185.17232,157.36509 181.37603,162.37216 177.96343,167.53963 174.95303,172.84542 172.36114,178.26647 170.20181,183.7789 168.48672,189.35807 167.22515,194.97879 166.42388,200.61538 166.08715,206.2419 166.21669,211.8322 166.81164,217.36014 167.86861,222.79967 169.38164,228.125 171.34228,233.31083 173.7396,238.33227 176.56029,243.16521 179.78866,247.78631 183.40681,252.17322 187.39467,256.30458 191.73014,260.16028 196.38918,263.72149 201.34599,266.97073 206.57308,269.89212 212.04152,272.47124 217.72101,274.69543 223.58009,276.55372 229.5863,278.03693 235.70639,279.13775 241.90645,279.85074 248.15214,280.17235 254.40887,280.10101 260.64199,279.63706 266.81697,278.78282 272.89962,277.54249 278.85624,275.92219 284.65384,273.92996 290.26032,271.57557 295.64459,268.87068 300.77687,265.82855 305.62869,262.46417 310.17318,258.79399 314.38518,254.83599 318.24131,250.60948 321.7202,246.13507 324.80256,241.43444 327.47128,236.53034 329.71153,231.4464 331.51085,226.20704 332.8592,220.83729 333.74904,215.36269 334.17534,209.80911 334.13562,204.20263 333.62995,198.56944 332.661,192.93562 331.23391,187.32704 329.3564,181.7692 327.0386,176.28713 324.29307,170.90519 321.13469,165.64699 317.58057,160.53524 313.65001,155.59163 309.3643,150.83671 304.74666,146.28979 299.82209,141.96883 294.61722,137.89032 289.16018,134.06924 283.4804,130.51895 277.6085,127.25111 271.57607,124.27567 265.41551,121.60076 259.15981,119.23268 252.84244,117.17587 246.49709,115.43289 240.1575,114.00441 233.85728,112.8892 227.6297,112.08417 221.50754,111.58437 215.52285,111.38303 209.70682,111.47163 204.08955,111.83989 198.69993,112.47592 193.56546,113.36622 188.71208,114.4958 184.16404,115.84827 179.94374,117.40593 176.07165,119.14986 172.56614,121.06008 169.44343,123.11563 166.71742,125.29469 164.39973,127.57476 162.49949,129.93272 161.02342,132.34504 159.97571,134.78785 159.35803,137.23716 159.16952,139.66891 159.40677,142.05921 160.06387,144.38439 161.13244,146.6212 162.60164,148.74695 164.45828,150.73958 166.68688,152.57787 169.26973,154.24152 172.18704,155.71129 175.417,156.9691 178.93596,157.99815 182.71847,158.78301 186.73756,159.30974 190.96478,159.56593 195.37038,159.54083 199.92356,159.22537 204.59251,158.61226 209.34471,157.69597 214.14705,156.47286 218.96606,154.94114 223.76803,153.1009 228.51928,150.95413 233.18632,148.5047 237.73598,145.75836 242.13574,142.72268 246.35377,139.40707 250.35919,135.82266 254.12222,131.98233 257.61438,127.90055 260.80858,123.59337 263.67938,119.07833 266.20303,114.37432 268.35768,109.50153 270.12348,104.48131 271.48267,99.336076 272.41975,94.089171 272.92146,88.764748 272.97699,83.387635 272.57792,77.983201 271.71837,72.577217 270.39497,67.195714 268.60689,61.864844 266.3559,56.61073 263.64627,51.459328 260.48486,46.436283 256.88098,41.566787 252.84642,36.875441 248.39534,32.386121 243.5442,28.121843 238.31168,24.104638 232.7186,20.355431 226.78776,16.893923 220.54384,13.738485 214.01325,10.906057 207.22403,8.4120495 200.20564,6.2702646 192.9888,4.4928153 185.60539,3.0900597 178.08816,2.070544 170.47067,1.4409552 162.78701,1.2060838 155.07168,1.3687973 147.35933,1.9300244 139.68464,2.8887495 132.08209,4.2420189 124.58574,5.9849565 117.22912,8.1107905 110.04498,10.610892 103.06515,13.474822 96.320295,16.690387 89.839848,20.243712 83.651766,24.119309 77.782415,28.300171 72.256407,32.767858 67.096481,37.502608 62.323362,42.483435 57.955657,47.688253 54.009755,53.093995 50.499729,58.676744 47.437267,64.411853 44.831611,70.274096 42.689501,76.237798 41.015143,82.276974 39.810189,88.365482 39.073732,94.477152 38.802312,100.58594 38.989937,106.66608 39.62812,112.69219 40.705933,118.63946 42.210065,124.48373 44.124904,130.20167 46.432627,135.7709 49.113299,141.17008 52.144991,146.37905 55.503908,151.37894 59.164515,156.15225 63.099696,160.68298 67.280898,164.95667 71.6783,168.96052 76.26098,172.6834 80.997092,176.11599 85.854046,179.25073 90.798692,182.08194 95.797513,184.6058 100.81681,186.82036 105.8229,188.72558 110.78228,190.3233 115.66188,191.61723 120.42918,192.61291 125.05241,193.3177 129.50078,193.74071 133.74461,193.89274 137.75547,193.78622 141.50643,193.43514 144.97212,192.85497 148.12894,192.06253 150.95512,191.07591 153.43096,189.9144 155.53881,188.59831 157.26327,187.14889 158.59121,185.58816 159.5119,183.93886 160.01702,182.22423 160.10073,180.46792 159.75973,178.69383 158.99322,176.92598 157.80297,175.18837 156.19325,173.50482 154.17082,171.89884 151.74496,170.39351 148.92731,169.0113 145.73187,167.77397 142.17493,166.70245 138.27493,165.81666 134.05237,165.13545 129.52974,164.67647 124.73135,164.45605 119.68318,164.4891 114.41276,164.78905 108.94904,165.36773 103.32213,166.23532 97.563269,167.40029 91.704514,168.86931 85.778648,170.64725 79.818953,172.73712 73.859038,175.14007 67.932639,177.85535 62.073433,180.8803 56.314849,184.21042 50.689872,187.83931 45.23086,191.75876 39.969361,195.95875 34.935932,200.42754 30.159964,205.1517 25.669518,210.11617 21.491164,215.3044 17.649828,220.69835 14.168652,226.27865 11.068862,232.02472 8.3696416,237.91478 6.0880277,243.9261 4.2388095,250.03501 2.8344434,256.2171 1.8849805,262.44732 1.3980076,268.70012 1.3786023,274.94963 1.8293013,281.16972 2.7500835,287.33423 4.1383685,293.41704 5.9890268,299.39226 8.2944074,305.23437 11.044377,310.91834 14.226374,316.41974 17.825478,321.71502 21.824488,326.78138 26.204018,331.5972 30.942605,336.14187 36.016823,340.39612 41.401411,344.34206 47.069418,347.96319 52.992344,351.24462 59.140305,354.17311 65.482192,356.73705 71.985843,358.92673 78.618225,360.73416 85.345612,362.15327 92.133776,363.17991 98.948172,363.81182 105.75413,364.04871 112.51706,363.89223 119.20259,363.34594 125.77687,362.41536 132.20662,361.10785 138.4594,359.43261 144.50379,357.4007 150.30953,355.02485 155.84768,352.31943 161.09083,349.30043 166.01321,345.98538 170.59085,342.39309 174.80168,338.54376 178.62571,334.4587 182.04508,330.16036 185.0442,325.67204 187.6098,321.01793 189.73104,316.22284 191.39952,311.31213 192.60938,306.31159 193.35728,301.24726 193.64247,296.14523 193.46671,291.03169 192.83434,285.93252 191.75223,280.87339 190.22969,275.87943 188.2785,270.9753 185.91275,266.18478 183.14884,261.53094 180.00532,257.03575 176.50285,252.72018 172.66399,248.60389 168.51316,244.70535 164.07648,241.04146 159.38156,237.62774 154.45742,234.47807 149.33431,231.60464 144.04347,229.01796 138.61705,226.72677 133.08785,224.73792 127.48919,223.05649 121.85469,221.68563 116.21808,220.62661 110.61302,219.8788 105.07287,219.43975 99.630612,219.30506 94.318508,219.46856 89.168033,219.92227 84.209652,220.65649 79.472653,221.65982 74.984986,222.91928 70.773099,224.42032 66.861791,226.14704 63.274075,228.08208 60.031041,230.20695 57.151741,232.50198 54.653083,234.94648 52.549729,237.51892 50.854021,240.19697 49.575903,242.95771 48.722868,245.77771 48.299917,248.63319 48.309531,251.50014 48.751652,254.35455 49.623688,257.17242 50.920528,259.92999 52.634567,262.60384 54.755755,265.17107 57.271645,267.60939 60.167472,269.89727 63.426233,272.01413 67.028781,273.94032 70.953939,275.65735 75.178612,277.14801 79.677924,278.39638 84.425357,279.38803 89.3929,280.11001 94.551207,280.55102 99.869766,280.70145 105.31707,280.55336 110.86079,280.10067 116.46797,279.33909 122.10521,278.26622 127.73883,276.88152 133.33511,275.18635 138.86044,273.18397 144.28154,270.87948 149.56561,268.27988 154.68054,265.39394 159.59514,262.23227 164.27918,258.80712 168.70376,255.1325 172.84126,251.2239 176.66569,247.09839 180.15269,242.7744 183.27978,238.27172 186.02639,233.61132 188.37406,228.81527 190.3065,223.90662 191.8097,218.90927 192.87203,213.84781 193.48424,208.74746 193.6396,203.63386 193.3339,198.53297 192.56543,193.4709 191.33512,188.4738 189.64639,183.56769 187.50523,178.77832 184.92013,174.13104 181.90205,169.65066 178.46436,165.3613 174.62276,161.28625 170.39519,157.44788 165.80177,153.86749 160.86461,150.56518 155.6078,147.55976 150.05717,144.86866 144.24022,142.50777 138.18593,140.49144 131.9246,138.83232 125.48775,137.54136 118.90782,136.6277 112.21811,136.09862 105.45255,135.95954 98.645482,136.21395 91.831516,136.86341 85.045319,137.90754 78.321428,139.344 71.694052,141.16855 65.196889,143.37503 58.862939,145.9554 52.72432,148.89981 46.812089,152.19662 41.156075,155.83251 35.784709,159.79249 30.724874,164.06003 26.001749,168.61717 21.638675,173.44454 17.657029,178.52155 14.076099,183.82646 10.912988,189.3365 8.1825135,195.028 5.8971293,200.87656 4.0668601,206.8571 2.6992459,212.94408 1.7993031,219.11162 1.369499,225.33357 1.4097406,231.58378 1.9173781,237.83613 2.8872216,244.06476 4.3115738,250.24411 6.1802757,256.3492 8.4807653,262.35564 11.198152,268.23977 14.315302,273.97892 17.812935,279.5514 21.669743,284.93662 25.862497,290.11527 30.366198,295.06941 35.154206,299.78254 40.198396,304.23967 45.469323,308.42744 50.93638,312.33419 56.567983,315.94996 62.331738,319.26666 68.19464,322.27794 74.123243,324.97937 80.083864,327.36842 86.042768,329.44441 91.966358,331.20857 97.821367,332.66397 103.57505,333.81556 109.19536,334.67014 114.65114,335.2362 119.91229,335.52403 124.94994,335.54554 129.73662,335.3142 134.24642,334.845 138.45512,334.15432 142.34031,333.25988 145.88158,332.18054 149.06056,330.93635 151.86109,329.5482 154.26928,328.03791 156.27355,326.42801 157.86477,324.74155 159.03628,323.00209 159.78391,321.23345 160.10602,319.45964 160.0035,317.70467 159.47978,315.99244 158.54082,314.34659 157.19501,312.79032 155.45324,311.34637 153.3287,310.03668 150.83691,308.88251 147.99561,307.90412 144.8246,307.12074 141.34573,306.55038 137.58268,306.20985 133.56088,306.11454 129.30736,306.27835 124.85058,306.71365 120.2203,307.43118 115.44733,308.43997 110.5635,309.74728 105.60133,311.3586 100.59395,313.27753 95.574843,315.50583 90.577714,318.04338 85.636252,320.88816 80.783965,324.03627 76.05398,327.48194 71.478857,331.2175 67.090408,335.23359 62.919507,339.51897 58.995924,344.0608 55.34815,348.84451 52.003236,353.85408 48.986639,359.0719 46.322077,364.47906 44.031395,370.05536 42.134431,375.77939 40.648918,381.62874 39.590362,387.58002 38.971973,393.60907 38.804573,399.69102 39.096535,405.8005 39.853742,411.91168 41.07954,417.99857 42.774724,424.03495 44.937528,429.99468 47.563632,435.85182 50.646182,441.58069 54.175831,447.1561 58.140781,452.55342 62.526854,457.74877 67.317561,462.71914 72.494199,467.44246 78.03595,471.89782 83.919991,476.0655 90.121628,479.92715 96.614422,483.46579 103.37034,486.66603 110.35991,489.51405 117.55239,491.99774 124.91592,494.10672 132.4177,495.8325 140.02418,497.16833 147.70127,498.10945 155.41449,498.653 163.12916,498.79802 170.8106,498.54554 178.42436,497.89851 185.93635,496.86183 193.31306,495.44224 200.52175,493.64837 207.53062,491.49068 214.30896,488.98133 220.8274,486.13423 227.05797,482.96483 232.97432,479.49015 238.55186,475.72861 243.76786,471.69997 248.60162,467.42524 253.03454,462.92644 257.05026,458.22668 260.63471,453.34984 263.77624,448.32055 266.46563,443.16404 268.69614,437.90597 270.4636,432.5723 271.76637,427.18915 272.60538,421.78268 272.98412,416.37892 272.90858,411.00361 272.38729,405.6821 271.43117,400.43921 270.05357,395.29904 268.27011,390.28489 266.09864,385.41915 263.55909,380.72311 260.67342,376.21692 257.46543,371.91939 253.96066,367.848 250.18625,364.01873 246.17074,360.44602 241.94398,357.1426 237.53688,354.11959 232.9813,351.38628 228.30983,348.95018 223.55562,346.81695 218.75217,344.9904 213.93319,343.47238 209.13236,342.26295 204.38316,341.36023 199.71866,340.76045 195.17138,340.45807 190.77304,340.44566 186.55445,340.7141 182.54528,341.25258 178.7739,342.04859 175.26726,343.08813 172.05069,344.35571 169.14778,345.83449 166.58026,347.50632 164.36781,349.3519 162.52807,351.35089 161.07639,353.48205 160.02588,355.72327 159.38727,358.05183 159.16882,360.44447 159.37633,362.87753 160.01311,365.32704 161.07989,367.76901 162.57492,370.17942 164.49384,372.53443 166.82989,374.81048 169.57377,376.98454 172.7138,379.03408 176.23594,380.93737 180.12391,382.67344 184.3592,384.22238 188.9213,385.56532 193.78769,386.68462 198.93406,387.56392 204.33438,388.18834 209.96109,388.54442 215.78527,388.62035 221.77673,388.40593 227.90426,387.89272 234.13575,387.07399 240.43844,385.94492 246.779,384.50248 253.12382,382.74553 259.43917,380.67484 265.69135,378.29302 271.84692,375.60462 277.87291,372.616 283.73694,369.3354 289.40746,365.77284 294.85392,361.94002 300.04693,357.85042 304.95843,353.51907 309.56185,348.96252 313.83226,344.19881 317.74655,339.24728 321.28347,334.12855 324.42386,328.86437 327.1507,323.47748 329.4492,317.99152 331.30691,312.4309 332.71379,306.82065 333.66227,301.18629 334.14728,295.55375 334.16629,289.94907 333.71934,284.39843 332.809,278.92793 331.44044,273.56344 329.62132,268.33045 327.36175,263.254 324.67434,258.35844 321.57399,253.66737 318.07791,249.2035 314.20551,244.98851 309.97825,241.04288 305.41956,237.38593 300.5547,234.03551 295.41062,231.00806 290.01583,228.31844 284.4002,225.97992 278.59485,224.004 272.63193,222.40043 266.54446,221.17713 260.36616,220.34013 254.13127,219.89358 Z" />
</svg>
